<svg width="30" height="26" viewBox="0 0 30 26" fill="none" xmlns="http://www.w3.org/2000/svg">
<path d="M9.75004 25.9998C10.9467 25.9998 11.9167 25.0298 11.9167 23.8332C11.9167 22.6366 10.9467 21.6665 9.75004 21.6665C8.55342 21.6665 7.58337 22.6366 7.58337 23.8332C7.58337 25.0298 8.55342 25.9998 9.75004 25.9998Z" fill="black"/>
<path d="M24.9167 25.9998C26.1133 25.9998 27.0833 25.0298 27.0833 23.8332C27.0833 22.6366 26.1133 21.6665 24.9167 21.6665C23.72 21.6665 22.75 22.6366 22.75 23.8332C22.75 25.0298 23.72 25.9998 24.9167 25.9998Z" fill="black"/>
<path d="M28.7625 3.84448C28.6103 3.65831 28.4186 3.50838 28.2012 3.40555C27.9838 3.30272 27.7463 3.24959 27.5058 3.25H6.8988L6.48375 0.895104C6.43949 0.644264 6.30827 0.417039 6.11312 0.253343C5.91797 0.089646 5.67138 -5.35177e-05 5.41667 2.39554e-08H1.08333C0.796015 2.39554e-08 0.520465 0.114137 0.317301 0.317301C0.114137 0.520466 0 0.796016 0 1.08333C0 1.37065 0.114137 1.6462 0.317301 1.84937C0.520465 2.05253 0.796015 2.16667 1.08333 2.16667H4.50802L7.59958 19.6882C7.64384 19.9391 7.77507 20.1663 7.97022 20.33C8.16536 20.4937 8.41195 20.5834 8.66667 20.5833H26C26.2873 20.5833 26.5629 20.4692 26.766 20.266C26.9692 20.0629 27.0833 19.7873 27.0833 19.5C27.0833 19.2127 26.9692 18.9371 26.766 18.734C26.5629 18.5308 26.2873 18.4167 26 18.4167H9.57531L9.19344 16.25H25.5558C25.9315 16.2495 26.2955 16.1193 26.5862 15.8813C26.8769 15.6432 27.0764 15.3121 27.151 14.9439L29.101 5.19391C29.148 4.95794 29.142 4.71449 29.0835 4.48113C29.0249 4.24777 28.9153 4.03032 28.7625 3.84448Z" fill="black"/>
</svg>
