<svg width="26" height="24" viewBox="0 0 26 24" fill="none" xmlns="http://www.w3.org/2000/svg">
<path d="M24.5625 11.9999H9.11875M3.6675 11.9999H1.4375M3.6675 11.9999C3.6675 11.2771 3.9546 10.584 4.46563 10.073C4.97667 9.56196 5.66979 9.27486 6.3925 9.27486C7.11522 9.27486 7.80833 9.56196 8.31937 10.073C8.8304 10.584 9.1175 11.2771 9.1175 11.9999C9.1175 12.7226 8.8304 13.4157 8.31937 13.9267C7.80833 14.4378 7.11522 14.7249 6.3925 14.7249C5.66979 14.7249 4.97667 14.4378 4.46563 13.9267C3.9546 13.4157 3.6675 12.7226 3.6675 11.9999ZM24.5625 20.2586H17.3775M17.3775 20.2586C17.3775 20.9815 17.0897 21.6754 16.5786 22.1865C16.0674 22.6977 15.3741 22.9849 14.6512 22.9849C13.9285 22.9849 13.2354 22.6965 12.7244 22.1855C12.2133 21.6744 11.9262 20.9813 11.9262 20.2586M17.3775 20.2586C17.3775 19.5357 17.0897 18.8431 16.5786 18.3319C16.0674 17.8208 15.3741 17.5336 14.6512 17.5336C13.9285 17.5336 13.2354 17.8207 12.7244 18.3317C12.2133 18.8428 11.9262 19.5359 11.9262 20.2586M11.9262 20.2586H1.4375M24.5625 3.74111H20.6813M15.23 3.74111H1.4375M15.23 3.74111C15.23 3.0184 15.5171 2.32528 16.0281 1.81425C16.5392 1.30321 17.2323 1.01611 17.955 1.01611C18.3129 1.01611 18.6672 1.0866 18.9978 1.22354C19.3284 1.36049 19.6288 1.56121 19.8819 1.81425C20.1349 2.06729 20.3356 2.36769 20.4726 2.6983C20.6095 3.02891 20.68 3.38326 20.68 3.74111C20.68 4.09897 20.6095 4.45331 20.4726 4.78393C20.3356 5.11454 20.1349 5.41494 19.8819 5.66798C19.6288 5.92102 19.3284 6.12174 18.9978 6.25869C18.6672 6.39563 18.3129 6.46611 17.955 6.46611C17.2323 6.46611 16.5392 6.17902 16.0281 5.66798C15.5171 5.15694 15.23 4.46383 15.23 3.74111Z" stroke="black" stroke-width="1.875" stroke-miterlimit="10" stroke-linecap="round"/>
</svg>
