<svg width="26" height="18" viewBox="0 0 26 18" fill="none" xmlns="http://www.w3.org/2000/svg">
<path d="M0.5 1.1875C0.5 0.93886 0.598772 0.700403 0.774587 0.524587C0.950403 0.348772 1.18886 0.25 1.4375 0.25H20.8125C21.0611 0.25 21.2996 0.348772 21.4754 0.524587C21.6512 0.700403 21.75 0.93886 21.75 1.1875C21.75 1.43614 21.6512 1.6746 21.4754 1.85041C21.2996 2.02623 21.0611 2.125 20.8125 2.125H1.4375C1.18886 2.125 0.950403 2.02623 0.774587 1.85041C0.598772 1.6746 0.5 1.43614 0.5 1.1875ZM0.5 16.1875C0.5 15.9389 0.598772 15.7004 0.774587 15.5246C0.950403 15.3488 1.18886 15.25 1.4375 15.25H17.0625C17.3111 15.25 17.5496 15.3488 17.7254 15.5246C17.9012 15.7004 18 15.9389 18 16.1875C18 16.4361 17.9012 16.6746 17.7254 16.8504C17.5496 17.0262 17.3111 17.125 17.0625 17.125H1.4375C1.18886 17.125 0.950403 17.0262 0.774587 16.8504C0.598772 16.6746 0.5 16.4361 0.5 16.1875ZM1.4375 7.75C1.18886 7.75 0.950403 7.84877 0.774587 8.02459C0.598772 8.2004 0.5 8.43886 0.5 8.6875C0.5 8.93614 0.598772 9.1746 0.774587 9.35041C0.950403 9.52623 1.18886 9.625 1.4375 9.625H24.5625C24.8111 9.625 25.0496 9.52623 25.2254 9.35041C25.4012 9.1746 25.5 8.93614 25.5 8.6875C25.5 8.43886 25.4012 8.2004 25.2254 8.02459C25.0496 7.84877 24.8111 7.75 24.5625 7.75H1.4375Z" fill="black"/>
</svg>
