<svg width="54" height="50" viewBox="0 0 54 50" fill="none" xmlns="http://www.w3.org/2000/svg">
<path d="M11.25 28.125C10.4212 28.125 9.62634 27.7958 9.04029 27.2097C8.45424 26.6237 8.125 25.8288 8.125 25C8.125 24.1712 8.45424 23.3763 9.04029 22.7903C9.62634 22.2042 10.4212 21.875 11.25 21.875C12.0788 21.875 12.8737 22.2042 13.4597 22.7903C14.0458 23.3763 14.375 24.1712 14.375 25C14.375 25.8288 14.0458 26.6237 13.4597 27.2097C12.8737 27.7958 12.0788 28.125 11.25 28.125ZM21.6667 28.125C20.8379 28.125 20.043 27.7958 19.457 27.2097C18.8709 26.6237 18.5417 25.8288 18.5417 25C18.5417 24.1712 18.8709 23.3763 19.457 22.7903C20.043 22.2042 20.8379 21.875 21.6667 21.875C22.4955 21.875 23.2903 22.2042 23.8764 22.7903C24.4624 23.3763 24.7917 24.1712 24.7917 25C24.7917 25.8288 24.4624 26.6237 23.8764 27.2097C23.2903 27.7958 22.4955 28.125 21.6667 28.125ZM32.0833 28.125C31.2545 28.125 30.4597 27.7958 29.8736 27.2097C29.2876 26.6237 28.9583 25.8288 28.9583 25C28.9583 24.1712 29.2876 23.3763 29.8736 22.7903C30.4597 22.2042 31.2545 21.875 32.0833 21.875C32.9121 21.875 33.707 22.2042 34.293 22.7903C34.8791 23.3763 35.2083 24.1712 35.2083 25C35.2083 25.8288 34.8791 26.6237 34.293 27.2097C33.707 27.7958 32.9121 28.125 32.0833 28.125Z" fill="#D9D9D9"/>
<path d="M50.0072 26.9462V33.5894C51.1767 32.9142 52.1479 31.943 52.8231 30.7735C53.4983 29.604 53.8538 28.2774 53.8539 26.9269V15.3868C53.8539 11.306 52.2327 7.39228 49.3472 4.50669C46.4616 1.62111 42.5479 0 38.467 0H15.3868C14.0364 3.43066e-05 12.7097 0.355535 11.5402 1.03077C10.3707 1.70601 9.39955 2.67719 8.72432 3.8467H38.467C41.5277 3.8467 44.4629 5.06253 46.6271 7.22673C48.7913 9.39092 50.0072 12.3262 50.0072 15.3868V26.9462ZM7.69341 7.69341C5.65299 7.69341 3.69614 8.50396 2.25335 9.94676C0.810553 11.3896 0 13.3464 0 15.3868V34.6203C0 36.6608 0.810553 38.6176 2.25335 40.0604C3.69614 41.5032 5.65299 42.3138 7.69341 42.3138V46.1528C7.69331 46.8623 7.88947 47.5581 8.26018 48.1631C8.6309 48.7681 9.16173 49.2588 9.79396 49.5808C10.4262 49.9029 11.1352 50.0439 11.8426 49.9881C12.5499 49.9323 13.228 49.682 13.802 49.2647L23.361 42.3138H38.467C40.5075 42.3138 42.4643 41.5032 43.9071 40.0604C45.3499 38.6176 46.1604 36.6608 46.1604 34.6203V15.3868C46.1604 13.3464 45.3499 11.3896 43.9071 9.94676C42.4643 8.50396 40.5075 7.69341 38.467 7.69341H7.69341ZM3.8467 15.3868C3.8467 14.3666 4.25198 13.3882 4.97338 12.6668C5.69477 11.9454 6.6732 11.5401 7.69341 11.5401H38.467C39.4873 11.5401 40.4657 11.9454 41.1871 12.6668C41.9085 13.3882 42.3137 14.3666 42.3137 15.3868V34.6203C42.3137 35.6405 41.9085 36.619 41.1871 37.3404C40.4657 38.0618 39.4873 38.467 38.467 38.467H22.107L11.5401 46.1528V38.467H7.69341C6.6732 38.467 5.69477 38.0618 4.97338 37.3404C4.25198 36.619 3.8467 35.6405 3.8467 34.6203V15.3868Z" fill="#D9D9D9"/>
</svg>
