<svg width="23" height="26" viewBox="0 0 23 26" fill="none" xmlns="http://www.w3.org/2000/svg">
<path d="M11.3747 0C8.78879 0 6.30884 1.02723 4.48036 2.85571C2.65188 4.68419 1.62465 7.16414 1.62465 9.75V15.5773L0.475779 16.7261C0.248588 16.9534 0.0938779 17.2429 0.0312057 17.5581C-0.0314666 17.8732 0.000713301 18.1999 0.123677 18.4968C0.246641 18.7937 0.454868 19.0475 0.722034 19.226C0.9892 19.4046 1.30331 19.4999 1.62465 19.5H21.1247C21.446 19.4999 21.7601 19.4046 22.0273 19.226C22.2944 19.0475 22.5027 18.7937 22.6256 18.4968C22.7486 18.1999 22.7808 17.8732 22.7181 17.5581C22.6554 17.2429 22.5007 16.9534 22.2735 16.7261L21.1247 15.5773V9.75C21.1247 7.16414 20.0974 4.68419 18.2689 2.85571C16.4405 1.02723 13.9605 0 11.3747 0ZM11.3747 26C10.0817 26 8.84175 25.4864 7.92751 24.5721C7.01327 23.6579 6.49965 22.4179 6.49965 21.125H16.2497C16.2497 22.4179 15.736 23.6579 14.8218 24.5721C13.9076 25.4864 12.6676 26 11.3747 26Z" fill="black"/>
</svg>
