<svg width="26" height="28" viewBox="0 0 26 28" fill="none" xmlns="http://www.w3.org/2000/svg">
<path d="M22.75 20.5C22.75 20.7761 22.5261 21 22.25 21H3.75C3.47386 21 3.25 20.7761 3.25 20.5V5.75C3.25 5.47386 3.47386 5.25 3.75 5.25H22.25C22.5261 5.25 22.75 5.47386 22.75 5.75V20.5ZM5.375 7C5.09886 7 4.875 7.22386 4.875 7.5V12.3713C4.875 12.8257 5.43218 13.0445 5.7414 12.7115L8.97776 9.22617C9.17543 9.0133 9.51227 9.01311 9.71018 9.22576L14.6658 14.5507C14.8633 14.7629 15.1994 14.7632 15.3973 14.5512L17.1029 12.7239C17.3007 12.5121 17.6366 12.5122 17.8342 12.7243L20.2592 15.3267C20.5687 15.6588 21.125 15.4398 21.125 14.9858V7.5C21.125 7.22386 20.9011 7 20.625 7H5.375ZM4.875 18.75C4.875 19.0261 5.09886 19.25 5.375 19.25H15.5731C16.0097 19.25 16.2366 18.7297 15.9395 18.4098L9.70963 11.7007C9.512 11.4878 9.17524 11.4876 8.97731 11.7001L5.00909 15.9615C4.92291 16.054 4.875 16.1758 4.875 16.3022V18.75ZM20.7618 19.25C20.9624 19.25 21.125 19.0874 21.125 18.8868C21.125 18.7951 21.0903 18.7068 21.0279 18.6396L17.8333 15.1993C17.6362 14.987 17.3004 14.9861 17.1022 15.1975L16.4937 15.8464C16.3137 16.0384 16.3133 16.337 16.4928 16.5295L18.882 19.091C18.9766 19.1924 19.109 19.25 19.2476 19.25H20.7618ZM18.6875 10.5C18.4674 10.5 18.277 10.4134 18.1162 10.2402C17.9554 10.0671 17.875 9.86198 17.875 9.625C17.875 9.38802 17.9554 9.18294 18.1162 9.00977C18.277 8.83659 18.4674 8.75 18.6875 8.75C18.9076 8.75 19.098 8.83659 19.2588 9.00977C19.4196 9.18294 19.5 9.38802 19.5 9.625C19.5 9.86198 19.4196 10.0671 19.2588 10.2402C19.098 10.4134 18.9076 10.5 18.6875 10.5ZM25.5 0C25.7761 0 26 0.223858 26 0.5V27.5C26 27.7761 25.7761 28 25.5 28H0.5C0.223858 28 0 27.7761 0 27.5V0.5C0 0.223857 0.223858 0 0.5 0H25.5ZM24.375 2.25C24.375 1.97386 24.1511 1.75 23.875 1.75H2.3231C2.04856 1.75 1.82538 1.97135 1.82311 2.24587L1.62916 25.7459C1.62687 26.0236 1.85139 26.25 2.12914 26.25H23.875C24.1511 26.25 24.375 26.0261 24.375 25.75V2.25Z" fill="#977364"/>
</svg>
