<svg width="25" height="28" viewBox="0 0 25 28" fill="none" xmlns="http://www.w3.org/2000/svg">
<path d="M19.7917 7C19.7917 8.85652 19.0234 10.637 17.656 11.9497C16.2885 13.2625 14.4339 14 12.5 14C10.5661 14 8.71147 13.2625 7.34401 11.9497C5.97656 10.637 5.20833 8.85652 5.20833 7C5.20833 5.14349 5.97656 3.36301 7.34401 2.05025C8.71147 0.737498 10.5661 0 12.5 0C14.4339 0 16.2885 0.737498 17.656 2.05025C19.0234 3.36301 19.7917 5.14349 19.7917 7ZM17.7083 7C17.7083 5.67392 17.1596 4.40215 16.1828 3.46447C15.2061 2.52678 13.8813 2 12.5 2C11.1187 2 9.7939 2.52678 8.81715 3.46447C7.8404 4.40215 7.29167 5.67392 7.29167 7C7.29167 8.32608 7.8404 9.59785 8.81715 10.5355C9.7939 11.4732 11.1187 12 12.5 12C13.8813 12 15.2061 11.4732 16.1828 10.5355C17.1596 9.59785 17.7083 8.32608 17.7083 7ZM3.64583 16C2.6789 16 1.75157 16.3687 1.06784 17.0251C0.384114 17.6815 0 18.5717 0 19.5V20C0 22.393 1.58646 24.417 3.83854 25.793C6.10312 27.177 9.16875 28 12.5 28C15.8312 28 18.8958 27.177 21.1615 25.793C23.4135 24.417 25 22.393 25 20V19.5C25 18.5717 24.6159 17.6815 23.9322 17.0251C23.2484 16.3687 22.3211 16 21.3542 16H3.64583ZM2.08333 19.5C2.08333 19.1022 2.24795 18.7206 2.54098 18.4393C2.834 18.158 3.23143 18 3.64583 18H21.3542C21.7686 18 22.166 18.158 22.459 18.4393C22.752 18.7206 22.9167 19.1022 22.9167 19.5V20C22.9167 21.473 21.9375 22.949 20.0427 24.106C18.1604 25.256 15.4969 26 12.5 26C9.50312 26 6.83958 25.256 4.95729 24.106C3.06146 22.95 2.08333 21.472 2.08333 20V19.5Z" fill="#977364"/>
</svg>
