<svg width="31" height="30" viewBox="0 0 31 30" fill="none" xmlns="http://www.w3.org/2000/svg">
<path d="M29.6012 27.4709L24.0353 21.95C26.1958 19.2561 27.2421 15.8369 26.959 12.3953C26.6759 8.95378 25.085 5.75147 22.5133 3.44689C19.9417 1.1423 16.5848 -0.0893989 13.1329 0.00505728C9.68101 0.0995135 6.39649 1.51294 3.95472 3.95472C1.51294 6.39649 0.0995135 9.68101 0.00505728 13.1329C-0.0893989 16.5848 1.1423 19.9417 3.44689 22.5133C5.75147 25.085 8.95378 26.6759 12.3953 26.959C15.8369 27.2421 19.2561 26.1958 21.95 24.0353L27.4709 29.5562C27.6104 29.6968 27.7763 29.8085 27.9591 29.8846C28.1419 29.9608 28.338 30 28.5361 30C28.7341 30 28.9302 29.9608 29.113 29.8846C29.2958 29.8085 29.4618 29.6968 29.6012 29.5562C29.8716 29.2765 30.0228 28.9026 30.0228 28.5136C30.0228 28.1245 29.8716 27.7506 29.6012 27.4709ZM13.5336 24.0353C11.4565 24.0353 9.42614 23.4194 7.69913 22.2655C5.97213 21.1115 4.6261 19.4714 3.83125 17.5524C3.0364 15.6335 2.82843 13.5219 3.23364 11.4848C3.63885 9.44766 4.63904 7.57643 6.10774 6.10774C7.57643 4.63904 9.44766 3.63885 11.4848 3.23364C13.5219 2.82843 15.6335 3.0364 17.5524 3.83125C19.4714 4.6261 21.1115 5.97213 22.2655 7.69913C23.4194 9.42614 24.0353 11.4565 24.0353 13.5336C24.0353 16.3188 22.9289 18.99 20.9594 20.9594C18.99 22.9289 16.3188 24.0353 13.5336 24.0353Z" fill="#977364"/>
</svg>
