<svg width="20" height="28" viewBox="0 0 20 28" fill="none" xmlns="http://www.w3.org/2000/svg">
<path d="M2.5 0C1.83696 0 1.20107 0.294999 0.732233 0.820101C0.263392 1.3452 0 2.05739 0 2.8V23.8C0 25.354 1.1125 26.6 2.5 26.6V28H5V26.6H15V28H17.5V26.6C18.8875 26.6 20 25.354 20 23.8V2.8C20 2.05739 19.7366 1.3452 19.2678 0.820101C18.7989 0.294999 18.163 0 17.5 0H2.5ZM2.5 2.8H8.75V23.8H2.5V2.8ZM11.25 2.8H17.5V23.8H11.25V2.8ZM5 11.2V15.4H7.5V11.2H5ZM12.5 11.2V15.4H15V11.2H12.5Z" fill="#977364"/>
</svg>
