<svg width="40" height="40" viewBox="0 0 40 40" fill="none" xmlns="http://www.w3.org/2000/svg">
<circle cx="20" cy="20" r="19.5" stroke="#D9D9D9"/>
<path d="M8.82128 29.9999H13.0709V19.7242L7 15.1572V28.1802C7 29.1792 7.82136 29.9999 8.82128 29.9999Z" fill="#4285F4"/>
<path d="M27.6054 29.9999H31.855C32.855 29.9999 33.6763 29.1792 33.6763 28.1802V15.1572L27.6054 19.6885" fill="#34A853"/>
<path d="M27.6054 11.8392V19.7243L33.6763 15.1931V12.7312C33.6763 10.4834 31.1051 9.19891 29.3195 10.5547" fill="#FBBC04"/>
<path d="M13.0709 19.7245V11.8394L20.356 17.2983L27.6054 11.8394V19.7245L20.3203 25.1478" fill="#EA4335"/>
<path d="M7 12.7311V15.1573L13.0709 19.6886V11.8391L11.3568 10.5546C9.57121 9.23449 7 10.5189 7 12.7311Z" fill="#C5221F"/>
</svg>
